# This file uses centimeters as units for non-parametric coordinates.

mtllib thingObj.mtl
g default
v -0.486604 -0.450005 0.400010
v -0.450005 -0.486604 0.400010
v -0.400010 -0.500000 0.400010
v -0.400010 -0.486604 0.450005
v -0.400010 -0.450005 0.486604
v -0.400010 -0.400010 0.500000
v -0.450005 -0.400010 0.486604
v -0.486604 -0.400010 0.450005
v -0.500000 -0.400010 0.400010
v 0.450005 -0.486604 0.400010
v 0.486604 -0.450005 0.400010
v 0.500000 -0.400010 0.400010
v 0.486604 -0.400010 0.450005
v 0.450005 -0.400010 0.486604
v 0.400010 -0.400010 0.500000
v 0.400010 -0.450005 0.486604
v 0.400010 -0.486604 0.450005
v 0.400010 -0.500000 0.400010
v -0.446155 0.486604 0.435055
v -0.482754 0.450005 0.435055
v -0.500000 0.400010 0.400010
v -0.486604 0.400010 0.450005
v -0.450005 0.400010 0.486604
v -0.400010 0.400010 0.500000
v -0.400010 0.450005 0.486604
v -0.396160 0.486604 0.485050
v -0.396160 0.500000 0.435055
v 0.490454 0.450005 0.435055
v 0.453855 0.486604 0.435055
v 0.403860 0.500000 0.435055
v 0.403860 0.486604 0.485050
v 0.400010 0.450005 0.486604
v 0.400010 0.400010 0.500000
v 0.450005 0.400010 0.486604
v 0.486604 0.400010 0.450005
v 0.500000 0.400010 0.400010
v -0.450005 0.400010 -0.486604
v -0.486604 0.400010 -0.450005
v -0.500000 0.400010 -0.400010
v -0.482754 0.450005 -0.364965
v -0.446155 0.486604 -0.364965
v -0.396160 0.500000 -0.364965
v -0.396160 0.486604 -0.414960
v -0.396160 0.450005 -0.451558
v -0.400010 0.400010 -0.500000
v 0.486604 0.400010 -0.450005
v 0.450005 0.400010 -0.486604
v 0.400010 0.400010 -0.500000
v 0.403860 0.450005 -0.451558
v 0.403860 0.486604 -0.414960
v 0.403860 0.500000 -0.364965
v 0.453855 0.486604 -0.364965
v 0.490454 0.450005 -0.364965
v 0.500000 0.400010 -0.400010
v -0.450005 -0.486604 -0.400010
v -0.486604 -0.450005 -0.400010
v -0.500000 -0.400010 -0.400010
v -0.486604 -0.400010 -0.450005
v -0.450005 -0.400010 -0.486604
v -0.400010 -0.400010 -0.500000
v -0.400010 -0.450005 -0.486604
v -0.400010 -0.486604 -0.450005
v -0.400010 -0.500000 -0.400010
v 0.486604 -0.450005 -0.400010
v 0.450005 -0.486604 -0.400010
v 0.400010 -0.500000 -0.400010
v 0.400010 -0.486604 -0.450005
v 0.400010 -0.450005 -0.486604
v 0.400010 -0.400010 -0.500000
v 0.450005 -0.400010 -0.486604
v 0.486604 -0.400010 -0.450005
v 0.500000 -0.400010 -0.400010
v -0.479085 -0.443214 0.443214
v -0.443214 -0.479085 0.443214
v -0.443214 -0.443214 0.479085
v 0.443214 -0.479085 0.443214
v 0.479085 -0.443214 0.443214
v 0.443214 -0.443214 0.479085
v -0.439364 0.479085 0.478260
v -0.475235 0.443214 0.478260
v -0.443214 0.443214 0.479085
v 0.482935 0.443214 0.478260
v 0.447064 0.479085 0.478260
v 0.443214 0.443214 0.479085
v -0.439364 0.443214 -0.444039
v -0.475235 0.443214 -0.408169
v -0.439364 0.479085 -0.408169
v 0.482935 0.443214 -0.408169
v 0.447064 0.443214 -0.444039
v 0.447064 0.479085 -0.408169
v -0.443214 -0.479085 -0.443214
v -0.479085 -0.443214 -0.443214
v -0.443214 -0.443214 -0.479085
v 0.479085 -0.443214 -0.443214
v 0.443214 -0.479085 -0.443214
v 0.443214 -0.443214 -0.479085
vt 0.023498 0.945006
vt 0.952130 0.004572
vt 0.074214 0.942557
vt 0.124897 0.939983
vt 0.111719 0.003292
vt 0.122727 0.993950
vt 0.113979 0.046311
vt 0.115632 0.090239
vt 0.064482 0.081596
vt 1.000829 0.074376
vt 0.947865 0.067270
vt 0.972827 0.912674
vt 0.095404 -0.006069
vt 1.003744 0.894720
vt 0.094993 0.057470
vt 1.026887 0.071946
vt 0.980314 0.081596
vt 0.929415 0.090239
vt 0.933936 0.046311
vt 0.957444 0.993950
vt 0.939039 0.003292
vt 0.937655 0.926298
vt 0.067040 0.037112
vt 0.952130 0.992405
vt 0.014710 0.027826
vt 0.947749 0.932274
vt 0.012504 0.911405
vt 0.064059 0.905133
vt 0.114774 0.899580
vt 0.115083 0.946597
vt 0.118837 -0.003018
vt 0.118558 0.044911
vt 1.009127 0.027826
vt 0.044050 0.995010
vt 0.958020 0.037111
vt 0.907606 0.044909
vt 0.886684 0.993226
vt 0.888094 0.946597
vt 0.889971 0.899580
vt 0.939639 0.905133
vt -0.000641 0.929635
vt 0.051985 0.934072
vt 0.066628 0.052992
vt 0.013620 0.943083
vt 0.014745 0.042339
vt 0.066888 0.938923
vt 0.014710 0.922941
vt 0.062942 0.992405
vt 0.066957 0.912069
vt 0.118389 0.902866
vt 0.118673 0.949391
vt 0.117987 0.015808
vt 0.117700 0.061997
vt 1.002281 0.042339
vt 0.995145 0.945027
vt 0.950474 0.052966
vt 0.899471 0.061948
vt 0.905326 0.995492
vt 0.905346 0.949367
vt 0.905664 0.902852
vt 0.956992 0.912062
vt 0.945161 0.995010
vt 1.009127 0.922941
vt 0.941350 0.940811
vt 0.075067 0.073752
vt 0.062942 0.004572
vt 0.023498 0.062647
vt 0.066892 0.058135
vt 0.014745 0.931260
vt 0.013620 0.053894
vt 0.066677 0.920716
vt 0.117797 0.911806
vt 0.118102 0.958142
vt 0.126110 0.037096
vt 0.125839 0.083174
vt 1.003744 0.060004
vt 0.947860 -0.006069
vt 0.953664 0.071217
vt 0.904269 0.080821
vt 0.901057 1.002381
vt 0.900457 0.956940
vt 0.900228 0.911081
vt 0.950871 0.920329
vt 0.995145 0.043915
vt 1.002281 0.931260
vt 0.943853 0.048213
vt 0.013369 0.003292
vt 0.023498 0.993950
vt 0.065828 0.003292
vt 0.076426 0.993950
vt 0.070775 0.041397
vt 0.984929 0.003292
vt 1.003744 0.993950
vt 1.032593 0.003292
vt 0.984944 0.941021
vt 0.977217 0.041397
vt 0.072316 0.993636
vt 0.013369 0.974852
vt 0.072195 0.947573
vt 0.984929 0.974852
vt 0.928127 0.993636
vt 0.929730 0.947573
vt 0.074975 0.994632
vt 0.014710 0.972592
vt 0.013620 0.992405
vt 0.074977 0.950394
vt 1.009127 0.972592
vt 0.995145 0.995010
vt 0.948956 0.994610
vt 0.948970 0.950380
vt 0.074669 1.002939
vt 0.014745 0.980568
vt 0.013620 0.004572
vt 0.074659 0.958886
vt 1.002281 0.980568
vt 0.995145 -0.006069
vt 0.943669 1.001441
vt 0.943256 0.958108
vt 0.903267 0.035355
vt 0.945565 0.034423
vt 1.003744 0.013703
vt 0.023498 0.013703
vt 0.082980 0.035909
vt 0.118120 1.004135
vt 0.899198 0.015773
vt 0.942527 0.014897
vt 1.002281 -0.006968
vt 0.014745 -0.006968
vt 0.074594 0.014919
vt 0.118671 0.995528
vt 0.908571 -0.003019
vt 0.950989 -0.002599
vt 1.009127 -0.021825
vt -0.005934 0.995010
vt 0.990066 0.911405
vt 1.000574 0.927895
vt 1.001453 0.992405
vt 0.014710 -0.021825
vt 0.075044 -0.002599
vt 0.115102 0.993227
vt 0.023039 0.064672
vt 0.028919 -0.006069
vt 1.001453 0.004572
vt 0.012755 0.071946
vn -0.134213 -0.981822 0.134213
vn -0.499791 -0.866064 0.011923
vn -0.499791 -0.866064 -0.011923
vn -0.134213 -0.981822 -0.134213
vn -0.866064 -0.499791 0.011923
vn -0.866064 -0.499791 -0.011923
vn -0.981822 -0.134213 0.134213
vn -0.981822 -0.134213 -0.134213
vn -0.134213 -0.134213 0.981822
vn -0.011923 -0.499791 0.866064
vn 0.011923 -0.499791 0.866064
vn 0.134213 -0.134213 0.981822
vn -0.011923 -0.866064 0.499791
vn 0.011923 -0.866064 0.499791
vn 0.134213 -0.981822 0.134213
vn -0.866064 -0.011923 0.499791
vn -0.868214 0.004119 0.496173
vn -0.974658 0.193797 0.111731
vn -0.499791 -0.011923 0.866064
vn -0.493499 0.003630 0.869739
vn -0.134213 0.134213 0.981822
vn 0.981822 -0.134213 0.134213
vn 0.866064 -0.499791 0.011923
vn 0.866064 -0.499791 -0.011923
vn 0.981822 -0.134213 -0.134213
vn 0.499791 -0.866064 0.011923
vn 0.499791 -0.866064 -0.011923
vn 0.134213 -0.981822 -0.134213
vn 0.499791 -0.011923 0.866064
vn 0.492655 0.002298 0.870222
vn 0.134213 0.134213 0.981822
vn 0.866064 -0.011923 0.499791
vn 0.867356 -0.002897 0.497679
vn 0.987778 0.107800 0.112581
vn -0.827638 0.561002 0.017070
vn -0.865089 0.501551 -0.008219
vn -0.975712 0.144764 -0.164407
vn -0.499791 0.866064 0.011923
vn -0.499791 0.866064 -0.011923
vn -0.134213 0.981822 0.134213
vn -0.134213 0.981822 -0.134213
vn -0.011532 0.704549 0.709562
vn 0.012655 0.733123 0.679978
vn 0.134213 0.981822 0.134213
vn -0.011057 0.172505 0.984946
vn 0.010052 0.165353 0.986183
vn 0.499791 0.866064 0.011923
vn 0.499791 0.866064 -0.011923
vn 0.134213 0.981822 -0.134213
vn 0.854482 0.519195 0.017218
vn 0.901953 0.431756 -0.008212
vn 0.982625 0.082492 -0.166264
vn -0.863193 0.035654 -0.503614
vn -0.866064 -0.011923 -0.499791
vn -0.498636 0.043864 -0.865701
vn -0.499791 -0.011923 -0.866064
vn -0.125088 0.435981 -0.891220
vn -0.134213 -0.134213 -0.981822
vn -0.010915 0.701098 -0.712981
vn 0.011759 0.700767 -0.713293
vn 0.119966 0.446469 -0.886721
vn -0.011923 0.866064 -0.499791
vn 0.011923 0.866064 -0.499791
vn 0.497739 0.041016 -0.866357
vn 0.499791 -0.011923 -0.866064
vn 0.134213 -0.134213 -0.981822
vn 0.863080 0.030076 -0.504171
vn 0.866064 -0.011923 -0.499791
vn -0.011923 -0.866064 -0.499791
vn 0.011923 -0.866064 -0.499791
vn -0.011923 -0.499791 -0.866064
vn 0.011923 -0.499791 -0.866064
vn 0.000000 0.000000 1.000000
vn 0.000000 0.000000 1.000000
vn 0.000000 0.000000 1.000000
vn 0.000000 0.000000 1.000000
vn 0.000000 1.000000 0.000000
vn 0.000000 1.000000 0.000000
vn 0.000000 1.000000 0.000000
vn 0.000000 1.000000 0.000000
vn 0.000000 0.000000 -1.000000
vn 0.000000 0.000000 -1.000000
vn 0.000000 0.000000 -1.000000
vn 0.000000 0.000000 -1.000000
vn 0.000000 -1.000000 0.000000
vn 0.000000 -1.000000 0.000000
vn 0.000000 -1.000000 0.000000
vn 0.000000 -1.000000 0.000000
vn 1.000000 0.000000 0.000000
vn 1.000000 0.000000 0.000000
vn 1.000000 0.000000 0.000000
vn 1.000000 0.000000 0.000000
vn -1.000000 0.000000 0.000000
vn -1.000000 0.000000 0.000000
vn -1.000000 0.000000 0.000000
vn -1.000000 0.000000 0.000000
vn -0.809119 -0.415528 0.415528
vn -0.415528 -0.809119 0.415528
vn -0.415528 -0.415528 0.809119
vn 0.415528 -0.809119 0.415528
vn 0.809119 -0.415528 0.415528
vn 0.415528 -0.415528 0.809119
vn -0.429375 0.720006 0.545186
vn -0.781090 0.303857 0.545499
vn -0.263581 0.087674 0.960645
vn 0.784269 0.240396 0.571954
vn 0.427801 0.715833 0.551879
vn 0.250752 0.059049 0.966249
vn -0.361253 0.684137 -0.633603
vn -0.730206 0.590811 -0.343135
vn -0.415528 0.809119 -0.415528
vn 0.774868 0.525991 -0.350590
vn 0.379296 0.656865 -0.651662
vn 0.415528 0.809119 -0.415528
vn -0.415528 -0.809119 -0.415528
vn -0.809119 -0.415528 -0.415528
vn -0.415528 -0.415528 -0.809119
vn 0.809119 -0.415528 -0.415528
vn 0.415528 -0.809119 -0.415528
vn 0.415528 -0.415528 -0.809119
s 1
g pCube1
usemtl initialShadingGroup
f 3/4/1 2/3/2 55/65/3 63/75/4
f 2/3/2 1/1/5 56/67/6 55/65/3
f 1/2/5 9/11/7 57/68/8 56/66/6
f 6/8/9 5/7/10 16/19/11 15/18/12
f 5/7/10 4/5/13 17/21/14 16/19/11
f 4/6/13 3/4/1 18/22/15 17/20/14
f 9/11/7 8/10/16 22/136/17 21/26/18
f 8/144/16 7/9/19 23/28/20 22/27/17
f 7/9/19 6/8/9 24/29/21 23/28/20
f 12/15/22 11/13/23 64/77/24 72/86/25
f 11/14/23 10/12/26 65/78/27 64/76/24
f 10/12/26 18/22/15 66/79/28 65/78/27
f 15/18/12 14/17/29 34/40/30 33/39/31
f 14/17/29 13/16/32 35/135/33 34/40/30
f 13/141/32 12/15/22 36/42/34 35/41/33
f 21/26/18 20/24/35 40/48/36 39/46/37
f 20/25/35 19/23/38 41/49/39 40/47/36
f 19/23/38 27/32/40 42/50/41 41/49/39
f 27/32/40 26/31/42 31/131/43 30/36/44
f 26/140/42 25/30/45 32/38/46 31/37/43
f 25/30/45 24/29/21 33/39/31 32/38/46
f 30/36/44 29/35/47 52/61/48 51/60/49
f 29/35/47 28/33/50 53/63/51 52/61/48
f 28/34/50 36/42/34 54/64/52 53/62/51
f 39/46/37 38/44/53 58/70/54 57/68/8
f 38/45/53 37/43/55 59/71/56 58/69/54
f 37/43/55 45/53/57 60/72/58 59/71/56
f 45/53/57 44/52/59 49/125/60 48/57/61
f 44/130/59 43/51/62 50/59/63 49/58/60
f 43/51/62 42/50/41 51/60/49 50/59/63
f 48/57/61 47/56/64 70/83/65 69/82/66
f 47/56/64 46/54/67 71/85/68 70/83/65
f 46/55/67 54/64/52 72/86/25 71/84/68
f 63/75/4 62/74/69 67/119/70 66/79/28
f 62/124/69 61/73/71 68/81/72 67/80/70
f 61/73/71 60/72/58 69/82/66 68/81/72
s off
f 6/8/73 15/18/74 33/39/75 24/29/76
f 27/32/77 30/36/78 51/60/79 42/50/80
f 45/53/81 48/57/82 69/82/83 60/72/84
f 63/75/85 66/79/86 18/22/87 3/4/88
f 12/15/89 72/86/90 54/64/91 36/42/92
f 57/68/93 9/11/94 21/26/95 39/46/96
s 1
f 8/10/16 9/11/7 1/2/5 73/143/97
f 73/88/97 1/1/5 2/3/2 74/90/98
f 2/3/2 3/4/1 4/6/13 74/90/98
f 74/89/98 4/5/13 5/7/10 75/91/99
f 5/7/10 6/8/9 7/9/19 75/91/99
f 75/91/99 7/9/19 8/144/16 73/87/97
f 73/87/97 74/89/98 75/91/99
f 17/20/14 18/22/15 10/12/26 76/93/100
f 76/93/100 10/12/26 11/14/23 77/95/101
f 11/13/23 12/15/22 13/141/32 77/142/101
f 77/94/101 13/16/32 14/17/29 78/96/102
f 14/17/29 15/18/12 16/19/11 78/96/102
f 78/96/102 16/19/11 17/21/14 76/92/100
f 76/92/100 77/94/101 78/96/102
f 26/31/42 27/32/40 19/23/38 79/139/103
f 79/139/103 19/23/38 20/25/35 80/138/104
f 20/24/35 21/26/18 22/136/17 80/137/104
f 80/98/104 22/27/17 23/28/20 81/99/105
f 23/28/20 24/29/21 25/30/45 81/99/105
f 81/99/105 25/30/45 26/140/42 79/97/103
f 79/97/103 80/98/104 81/99/105
f 35/41/33 36/42/34 28/34/50 82/134/106
f 82/133/106 28/33/50 29/35/47 83/132/107
f 29/35/47 30/36/44 31/131/43 83/132/107
f 83/101/107 31/37/43 32/38/46 84/102/108
f 32/38/46 33/39/31 34/40/30 84/102/108
f 84/102/108 34/40/30 35/135/33 82/100/106
f 82/100/106 83/101/107 84/102/108
f 44/52/59 45/53/57 37/43/55 85/129/109
f 85/129/109 37/43/55 38/45/53 86/128/110
f 38/44/53 39/46/37 40/48/36 86/105/110
f 86/104/110 40/47/36 41/49/39 87/106/111
f 41/49/39 42/50/41 43/51/62 87/106/111
f 87/106/111 43/51/62 44/130/59 85/103/109
f 85/103/109 86/104/110 87/106/111
f 53/62/51 54/64/52 46/55/67 88/108/112
f 88/127/112 46/54/67 47/56/64 89/126/113
f 47/56/64 48/57/61 49/125/60 89/126/113
f 89/109/113 49/58/60 50/59/63 90/110/114
f 50/59/63 51/60/49 52/61/48 90/110/114
f 90/110/114 52/61/48 53/63/51 88/107/112
f 88/107/112 89/109/113 90/110/114
f 62/74/69 63/75/4 55/65/3 91/123/115
f 91/123/115 55/65/3 56/67/6 92/122/116
f 56/66/6 57/68/8 58/70/54 92/113/116
f 92/112/116 58/69/54 59/71/56 93/114/117
f 59/71/56 60/72/58 61/73/71 93/114/117
f 93/114/117 61/73/71 62/124/69 91/111/115
f 91/111/115 92/112/116 93/114/117
f 71/84/68 72/86/25 64/77/24 94/116/118
f 94/121/118 64/76/24 65/78/27 95/120/119
f 65/78/27 66/79/28 67/119/70 95/120/119
f 95/117/119 67/80/70 68/81/72 96/118/120
f 68/81/72 69/82/66 70/83/65 96/118/120
f 96/118/120 70/83/65 71/85/68 94/115/118
f 94/115/118 95/117/119 96/118/120
